# xmcd
#
# Track frame offsets: 
#        150
#        24544
#        37737
#        53447
#        66062
#        82137
#        104809
#        117028
#        129324
#        143844
#        157471
#        183320
#        195765
#        208705
#        220420
#        231392
#
# Disc length: 3276 seconds
#
# Revision: 1
# Processed by: cddbd v1.5.2PL0 Copyright (c) Steve Scherf et al.
# Submitted via: ExactAudioCopy v0.95b3
#
DISCID=e30cca10
DTITLE=Various Artist - Blues Power CD2
DYEAR=2005
DGENRE=Blues
TTITLE0=Ten Years After/I Can't Keep From Crying, Sometimes
TTITLE1=Howlin' Wolf/I Ain't Superstitious
TTITLE2=Buddy Guy, Muddy Waters/Country Boy
TTITLE3=Bo Diddley/I'm A Man
TTITLE4=Taste/Same Old Story
TTITLE5=Roy Buchanan/Wayfaring Pilgrim
TTITLE6=Memphis Slim/Trouble Trouble
TTITLE7=Jimmy Witherspoon/Ain't Nobody's Business
TTITLE8=Clarence "Gatemouth" Brown/Rock My Blues Away
TTITLE9=Buddy Guy/My Time After A While
TTITLE10=Brian Auger, Julie Driscoll and The Trinit/All Blues
TTITLE11=Elmore James/The Sun Is Shining
TTITLE12=Lowell Fulson/Rollin' Blues
TTITLE13=Sonny Boy Williamson/Don't Start Me To Talkin'
TTITLE14=Little Walter/Blue Midnight
TTITLE15=Little Milton/Blues Get Off My Shoulder
EXTD=
EXTT0=
EXTT1=
EXTT2=
EXTT3=
EXTT4=
EXTT5=
EXTT6=
EXTT7=
EXTT8=
EXTT9=
EXTT10=
EXTT11=
EXTT12=
EXTT13=
EXTT14=
EXTT15=
PLAYORDER=
